<?xml version="1.0" encoding="utf-8"?>
<!-- Generator: Adobe Illustrator 19.1.0, SVG Export Plug-In . SVG Version: 6.00 Build 0)  -->
<svg version="1.1" id="Layer_1" xmlns="http://www.w3.org/2000/svg" xmlns:xlink="http://www.w3.org/1999/xlink" x="0px" y="0px"
	 viewBox="0 0 115.8 66.1" style="enable-background:new 0 0 115.8 66.1;" xml:space="preserve">
<style type="text/css">
	.st0{fill:#F5F5F5;}
	.st1{fill:#9F1734;}
	.st2{fill:#E6385B;}
	.st3{fill:#FFFFFF;}
</style>
<g>
	<path class="st3" d="M114.4,47.9H1.4c-0.8,0-1.4-0.6-1.4-1.4V23.6c0-0.8,0.6-1.4,1.4-1.4h112.9c0.8,0,1.4,0.6,1.4,1.4v22.8
		C115.8,47.2,115.2,47.9,114.4,47.9z M2.9,45h110.1V25H2.9V45z"/>
	<g>
		<path class="st3" d="M12.1,30.7c0-0.1,0.1-0.3,0.3-0.3h3.9c1.6,0,2.9,1.3,2.9,2.8c0,1.2-0.8,2.2-2,2.7l1.8,3.4
			c0.1,0.2,0,0.4-0.2,0.4H17c-0.1,0-0.2-0.1-0.2-0.1l-1.8-3.5h-0.9v3.4c0,0.1-0.1,0.2-0.2,0.2h-1.6c-0.1,0-0.3-0.1-0.3-0.2V30.7z
			 M16.1,34.4c0.5,0,1-0.5,1-1.1c0-0.6-0.5-1-1-1h-2v2.1H16.1z"/>
		<path class="st3" d="M20.8,30.7c0-0.1,0.1-0.3,0.3-0.3h1.6c0.1,0,0.2,0.1,0.2,0.3v5.3c0,0.9,0.7,1.7,1.6,1.7c1,0,1.7-0.7,1.7-1.7
			v-5.3c0-0.1,0.1-0.3,0.2-0.3h1.6c0.1,0,0.3,0.1,0.3,0.3v5.4c0,2-1.7,3.7-3.8,3.7c-2.1,0-3.7-1.7-3.7-3.7V30.7z"/>
		<path class="st3" d="M30.5,30.7c0-0.1,0.1-0.3,0.2-0.3h3.1c1.6,0,2.8,1.1,2.8,2.5c0,1-0.9,1.8-1.5,2.1c0.7,0.3,1.8,0.9,1.8,2.2
			c0,1.5-1.3,2.5-2.9,2.5h-3.3c-0.1,0-0.2-0.1-0.2-0.2V30.7z M33.5,34.2c0.5,0,0.9-0.4,0.9-1c0-0.5-0.4-0.9-0.9-0.9h-1v1.8H33.5z
			 M33.7,37.8c0.5,0,0.9-0.4,0.9-1c0-0.5-0.6-0.9-1.1-0.9h-1.1v1.9H33.7z"/>
		<path class="st3" d="M40.2,35.3l-2.9-4.4c-0.1-0.2,0-0.4,0.2-0.4h1.7c0.1,0,0.2,0.1,0.2,0.1l1.8,2.7l1.8-2.7
			c0-0.1,0.1-0.1,0.2-0.1H45c0.2,0,0.3,0.2,0.2,0.4l-3,4.4v4.2c0,0.1-0.1,0.2-0.2,0.2h-1.6c-0.1,0-0.3-0.1-0.3-0.2V35.3z"/>
		<path class="st3" d="M50.5,30.4c1.3,0,2.3,0.4,3.2,1.2c0.1,0.1,0.1,0.3,0,0.4l-0.6,0.6c-0.1,0.1-0.2,0.1-0.3,0
			c-0.6-0.5-1.5-0.9-2.3-0.9c-1.9,0-3.3,1.6-3.3,3.4c0,1.8,1.4,3.4,3.3,3.4c1,0,1.6-0.4,2.3-0.9c0.1-0.1,0.2-0.1,0.3,0l0.6,0.6
			c0.1,0.1,0.1,0.3,0,0.4c-0.9,0.9-2,1.3-3.2,1.3c-2.6,0-4.8-2.1-4.8-4.7C45.8,32.5,47.9,30.4,50.5,30.4z"/>
		<path class="st3" d="M59.6,30.4c2.6,0,4.8,2.1,4.8,4.8c0,2.6-2.1,4.7-4.8,4.7c-2.6,0-4.7-2.1-4.7-4.7C54.9,32.5,57,30.4,59.6,30.4
			z M59.6,38.5c1.9,0,3.4-1.5,3.4-3.4c0-1.9-1.5-3.4-3.4-3.4c-1.9,0-3.4,1.6-3.4,3.4C56.2,37,57.8,38.5,59.6,38.5z"/>
		<path class="st3" d="M66.3,30.6c0-0.1,0.1-0.2,0.2-0.2h0.3l5.7,6.6h0v-6.2c0-0.1,0.1-0.3,0.3-0.3h0.8c0.1,0,0.2,0.1,0.2,0.3v8.9
			c0,0.1-0.1,0.2-0.2,0.2h-0.3l-5.7-6.8h0v6.4c0,0.1-0.1,0.2-0.2,0.2h-0.8c-0.1,0-0.2-0.1-0.2-0.2V30.6z"/>
		<path class="st3" d="M76.5,30.7c0-0.1,0.1-0.3,0.3-0.3H82c0.1,0,0.2,0.1,0.2,0.3v0.7c0,0.1-0.1,0.3-0.2,0.3h-4.2v3h3.5
			c0.1,0,0.2,0.1,0.2,0.3v0.7c0,0.1-0.1,0.2-0.2,0.2h-3.5v3.5c0,0.1-0.1,0.2-0.2,0.2h-0.9c-0.1,0-0.3-0.1-0.3-0.2V30.7z"/>
		<path class="st3" d="M84.3,37.4c0.7,0,1.3,0.6,1.3,1.3c0,0.7-0.6,1.2-1.3,1.2c-0.7,0-1.2-0.6-1.2-1.2
			C83.1,37.9,83.6,37.4,84.3,37.4z"/>
		<path class="st3" d="M90.8,30.4c1.3,0,2.3,0.4,3.2,1.2c0.1,0.1,0.1,0.3,0,0.4L93,33c-0.1,0.1-0.2,0.1-0.3,0
			c-0.5-0.4-1.1-0.7-1.8-0.7c-1.5,0-2.6,1.2-2.6,2.7c0,1.5,1.1,2.7,2.6,2.7c0.6,0,1.3-0.2,1.8-0.6c0.1-0.1,0.3-0.1,0.3,0l1,1.1
			c0.1,0.1,0.1,0.3,0,0.4c-0.9,0.9-2,1.3-3.2,1.3c-2.6,0-4.8-2.1-4.8-4.7C86.1,32.5,88.2,30.4,90.8,30.4z"/>
		<path class="st3" d="M99.6,30.4c2.6,0,4.8,2.1,4.8,4.8c0,2.6-2.1,4.7-4.8,4.7s-4.7-2.1-4.7-4.7C94.9,32.5,97,30.4,99.6,30.4z
			 M99.6,37.8c1.5,0,2.6-1.2,2.6-2.6c0-1.5-1.2-2.7-2.6-2.7c-1.4,0-2.6,1.2-2.6,2.7C97,36.6,98.2,37.8,99.6,37.8z"/>
	</g>
	<path class="st3" d="M70.4,47.9l-7.6,8.8l3.8-8.8h-3.1L57.9,61l-5.6-13.2h-3.1l3.8,8.8l-7.6-8.8h-3.8l15.2,17.7l0,0l0,0
		c0,0,0,0,0,0c0,0,0.1,0.1,0.1,0.1c0,0,0.1,0,0.1,0.1c0,0,0,0,0,0c0,0,0,0,0.1,0c0,0,0,0,0,0c0,0,0.1,0,0.1,0.1c0,0,0,0,0,0
		c0,0,0.1,0,0.1,0c0,0,0.1,0,0.1,0c0,0,0,0,0.1,0c0.1,0,0.2,0,0.3,0h0l0,0c0.1,0,0.2,0,0.3,0c0,0,0,0,0.1,0c0,0,0.1,0,0.1,0
		c0,0,0.1,0,0.1,0c0,0,0,0,0,0c0,0,0.1,0,0.1-0.1c0,0,0,0,0,0c0,0,0,0,0.1,0c0,0,0,0,0,0c0,0,0.1,0,0.1-0.1c0,0,0.1-0.1,0.1-0.1
		c0,0,0,0,0,0l0,0l0,0l15.2-17.8H70.4z"/>
	<path class="st3" d="M99.3,17.9c0,0-0.1-0.2-0.1-0.4c0-0.1-0.2-0.3-0.2-0.3L86,0.6c0,0,0,0,0,0c0,0-0.1-0.1-0.1-0.1
		c0,0-0.1-0.1-0.1-0.1c-0.1,0-0.1-0.1-0.2-0.1c0,0-0.1,0-0.1-0.1c0,0,0,0,0,0c-0.1,0-0.1,0-0.2,0c0,0-0.1,0-0.1,0
		c-0.1,0-0.2,0-0.3,0l0,0H31h0c-0.1,0-0.2,0-0.3,0c0,0-0.1,0-0.1,0c-0.1,0-0.1,0-0.2,0c0,0,0,0,0,0c0,0-0.1,0-0.1,0.1
		c-0.1,0-0.1,0.1-0.2,0.1c0,0-0.1,0-0.1,0.1c0,0-0.1,0.1-0.1,0.1c0,0,0,0,0,0l-13,16.7c0,0,0,0,0,0c0,0,0,0.1-0.1,0.1
		c0,0-0.1,0.1-0.1,0.1c0,0,0,0.1,0,0.1c0,0,0,0.1,0,0.2c0,0,0,0.1,0,0.1c0,0.1,0,0.1,0,0.2c0,0,0,0,0,0.1c0,0,0,0,0,0
		c0,0.1,0,0.2,0,0.3c0,0,0,0,0,0.1c0,0.1,0,0.1,0.1,0.2c0,0,0,0.1,0,0.1c0,0,0,0.1,0.1,0.1c0,0,0,0.1,0.1,0.1c0,0,0,0.1,0.1,0.1
		l2.7,3.1h3.8l-2.3-2.6h16.1l1.1,2.6h3.1l-1.1-2.6h37.5c0,0,0,0,0,0c0,0,0,0,0,0h4.5c0.8,0,1.4-0.6,1.4-1.4c0-0.8-0.6-1.4-1.4-1.4
		h-2.3l5.3-12.4l9.7,12.4h-6.5c-0.8,0-1.4,0.6-1.4,1.4c0,0.8,0.6,1.4,1.4,1.4h6.4l-2.3,2.6h3.8l2.7-3.1c0,0,0.1-0.2,0.2-0.3
		c0.1-0.1,0.1-0.3,0.1-0.3C99.3,18.2,99.3,18,99.3,17.9z M55.3,2.9l-16.6,13l-5.5-13H55.3z M20.9,16.7l9.7-12.4l5.3,12.4H20.9z
		 M42.2,16.7L59.3,3.4L74,16.7H42.2z M77.2,15.7L63.1,2.9h19.6L77.2,15.7z"/>
</g>
</svg>
